<svg id="undraw_code_thinking_1jeh" xmlns="http://www.w3.org/2000/svg" width="802.404" height="333.493" viewBox="0 0 802.404 333.493">
  <path id="Trazado_119" data-name="Trazado 119" d="M71.17,390.067l-18.4-1.227,6.133,27.6,20.851-8.586Z" transform="translate(-13.653 -100.597)" fill="#ffb9b9"/>
  <path id="Trazado_120" data-name="Trazado 120" d="M264.648,306.447l-42.929-41.7-24.532,19.012-48.449,58.261,5.52,8.586,58.874-39.863L253,362.868l38.023-19.011Z" transform="translate(-38.48 -68.492)" fill="#2f2e41"/>
  <path id="Trazado_121" data-name="Trazado 121" d="M264.648,306.447l-42.929-41.7-24.532,19.012-48.449,58.261,5.52,8.586,58.874-39.863L253,362.868l38.023-19.011Z" transform="translate(-38.48 -68.492)" opacity="0.1"/>
  <path id="Trazado_122" data-name="Trazado 122" d="M340.379,573.652l-5.519,4.293L290.09,562.613l-10.426-4.293-20.851,4.293s0-17.172,19.625-16.558l20.238,4.906,23.918,1.84Z" transform="translate(-110.531 -308.1)" fill="#ffb9b9"/>
  <path id="Trazado_123" data-name="Trazado 123" d="M288.714,396.336l-13.492,8.586H259.276l-74.206-27.6L76.521,396.949l-3.067-23.3L172.8,330.1l87.085,28.824Z" transform="translate(-19.003 -85.401)" fill="#2f2e41"/>
  <path id="Trazado_124" data-name="Trazado 124" d="M300.191,476.566l-9.2,1.84-2-2.339a12.392,12.392,0,0,1-1.675-13.606h0l25.757-33.73s7.359-16.558,19.012-9.812-9.812,17.785-9.812,17.785L309.39,456.941l1.227,10.426Z" transform="translate(-117.565 -274.795)" fill="#ffb9b9"/>
  <ellipse id="Elipse_39" data-name="Elipse 39" cx="23.918" cy="23.918" rx="23.918" ry="23.918" transform="translate(216.969 114.073)" fill="#ffb9b9"/>
  <path id="Trazado_125" data-name="Trazado 125" d="M369.258,432.634,380.3,459l26.371-11.039s-8.586-20.851-8.586-21.465S369.258,432.634,369.258,432.634Z" transform="translate(-139.104 -277.164)" fill="#ffb9b9"/>
  <path id="Trazado_126" data-name="Trazado 126" d="M424.219,516.61a137.419,137.419,0,0,1-6.739,42.5l-1.792,5.51-8.586,39.25-9.2,2.453-6.746-8.586-13.492-9.812-9.812-15.945-8.414-14.019-2.625-4.379-9.2-46-34.957-19.625-11.652-1.84,2.453-6.746,10.426-14.105,10.426-1.227,3.066-2.453,2.453,1.227,9.812-5.52,3.066,1.227L360.64,460.2l10.892-2.281,15.663-8.408,6.415,1.049,22.078,18.4A137.3,137.3,0,0,1,424.219,516.61Z" transform="translate(-121.446 -283.126)" fill="#575a89"/>
  <path id="Trazado_127" data-name="Trazado 127" d="M103.547,615.921s5.493-9.31,3.173-10.4-12.173-5.42-12.173-5.42L80.1,595.316s-20.85-30.987-21.307-4.04S73.972,624.7,73.972,624.7s13.948,30.017,21.849,25.23,15.807-21.035,15.807-21.035S97.379,621.236,103.547,615.921Z" transform="translate(-58.781 -316.954)" fill="#2f2e41"/>
  <path id="Trazado_128" data-name="Trazado 128" d="M375.655,297.491l-23.3,15.332-34.784,31.363-2.625-4.379-7.359-36.8h1.84l19.012-34.956Z" transform="translate(-79.575 -69.348)" opacity="0.1"/>
  <path id="Trazado_129" data-name="Trazado 129" d="M321.8,263.09l-19.012,34.956h-6.746l-4.293,12.265-9.813,2.454,26.371,28.824,37.409-33.73,23.3-15.332Z" transform="translate(-72.94 -68.064)" fill="#575a89"/>
  <path id="Trazado_130" data-name="Trazado 130" d="M355.742,380.671l-2.591,1a3.618,3.618,0,0,1-.925-5.085l-4.789-.224a36.162,36.162,0,0,1,53.985-4.351c.218-.751,2.595.71,3.565,2.191.326-1.222,2.555,4.685,3.343,8.86.365-1.39,1.768.854.539,3.008.779-.114,1.131,1.879.528,2.989.852-.4.708,1.978-.215,3.568,1.216-.108-9.589,16.661-13.964,26.461-1.27-5.837-2.7-11.982-6.794-16.33-.7-.739-1.459-1.412-2.22-2.084l-4.117-3.634c-4.787-4.226-9.142-9.441-15.519-11.02-4.383-1.085-7.154-1.33-4.765-6.269-2.158.9-4.173,2.24-6.35,3.076C355.48,382.134,355.785,381.362,355.742,380.671Z" transform="translate(-133.459 -260.464)" fill="#2f2e41"/>
  <ellipse id="Elipse_40" data-name="Elipse 40" cx="4.293" cy="4.293" rx="4.293" ry="4.293" transform="translate(248.552 136.458)" fill="#ffb9b9"/>
  <rect id="Rectángulo_866" data-name="Rectángulo 866" width="20.756" height="20.756" transform="translate(132.275 44.262)" fill="#581b98"/>
  <path id="Trazado_131" data-name="Trazado 131" d="M273.424,287.974h-25.2v-25.2h25.2Zm-24.108-1.1h23.012V263.866H249.316Z" transform="translate(-107.79 -234.816)" fill="#3f3d56"/>
  <rect id="Rectángulo_867" data-name="Rectángulo 867" width="20.756" height="20.756" transform="translate(54.591 108.415) rotate(74.063)" fill="#9c1de7"/>
  <path id="Trazado_132" data-name="Trazado 132" d="M130.828,407l-6.92-24.235,24.235-6.92,6.92,24.235Zm-5.566-23.482,6.319,22.128,22.128-6.319L147.39,377.2Z" transform="translate(-75.63 -264.07)" fill="#3f3d56"/>
  <rect id="Rectángulo_868" data-name="Rectángulo 868" width="20.756" height="20.756" transform="matrix(-0.683, 0.731, -0.731, -0.683, 69.305, 20.252)" fill="#faee1c"/>
  <path id="Trazado_133" data-name="Trazado 133" d="M112.781,270.637l17.209-18.414L148.4,269.432,131.2,287.846Zm17.262-16.865L114.33,270.584,131.143,286.3l15.713-16.813Z" transform="translate(-72.751 -232.087)" fill="#3f3d56"/>
  <path id="Trazado_134" data-name="Trazado 134" d="M915.044,229.035H722.184V225.06H634.733v3.975H441.077a13.046,13.046,0,0,0-13.046,13.046V506.166a13.046,13.046,0,0,0,13.046,13.046H915.044a13.046,13.046,0,0,0,13.046-13.046V242.08a13.046,13.046,0,0,0-13.045-13.045Z" transform="translate(-154.309 -225.06)" fill="#3f3d56"/>
  <rect id="Rectángulo_869" data-name="Rectángulo 869" width="465.079" height="262.352" transform="translate(291.212 27.03)" fill="#9c1de7"/>
  <ellipse id="Elipse_41" data-name="Elipse 41" cx="4.77" cy="4.77" rx="4.77" ry="4.77" transform="translate(518.584 10.335)" fill="#3b42ce"/>
  <path id="Trazado_135" data-name="Trazado 135" d="M724.919,298.816H392.845V36.464Z" transform="translate(-101.633 -9.434)" fill="#f7f7f7" opacity="0.1"/>
  <ellipse id="Elipse_42" data-name="Elipse 42" cx="44.705" cy="44.705" rx="44.705" ry="44.705" transform="translate(319.278 180.341)" fill="#353535"/>
  <path id="Trazado_136" data-name="Trazado 136" d="M543.811,535.157a55.608,55.608,0,1,1,55.609-55.608A55.609,55.609,0,0,1,543.811,535.157Zm0-110.49a54.882,54.882,0,1,0,54.881,54.882A54.881,54.881,0,0,0,543.811,424.667Z" transform="translate(-169.876 -276.512)" fill="#3f3d56"/>
  <rect id="Rectángulo_870" data-name="Rectángulo 870" width="43.443" height="9.078" transform="translate(631.87 168.519)" fill="#3f3d56"/>
  <rect id="Rectángulo_871" data-name="Rectángulo 871" width="148.486" height="3.89" transform="translate(579.349 97.842)" fill="#3f3d56"/>
  <rect id="Rectángulo_872" data-name="Rectángulo 872" width="148.486" height="3.89" transform="translate(579.349 110.161)" fill="#3f3d56"/>
  <rect id="Rectángulo_873" data-name="Rectángulo 873" width="148.486" height="3.89" transform="translate(579.349 122.482)" fill="#3f3d56"/>
  <rect id="Rectángulo_874" data-name="Rectángulo 874" width="148.486" height="3.89" transform="translate(579.349 134.801)" fill="#3f3d56"/>
  <rect id="Rectángulo_875" data-name="Rectángulo 875" width="148.486" height="3.89" transform="translate(579.349 147.122)" fill="#3f3d56"/>
  <rect id="Rectángulo_876" data-name="Rectángulo 876" width="18.155" height="18.155" transform="translate(709.679 32.353)" fill="#fff707"/>
  <path id="Trazado_137" data-name="Trazado 137" d="M1044.306,296.872H1022.26V274.826h22.046Zm-21.087-.958h20.129V275.785h-20.129Z" transform="translate(-308.042 -237.935)" fill="#3f3d56"/>
  <path id="Trazado_138" data-name="Trazado 138" d="M934.215,607.633H888.827v-3.27a.649.649,0,0,0-.648-.648H872.616a.648.648,0,0,0-.648.648v3.27h-9.732v-3.27a.648.648,0,0,0-.648-.648H846.026a.648.648,0,0,0-.649.648v3.27h-9.722v-3.27a.649.649,0,0,0-.649-.648H819.444a.648.648,0,0,0-.648.648v3.27H809.07v-3.27a.648.648,0,0,0-.648-.648H792.859a.649.649,0,0,0-.649.648v3.27h-9.726v-3.27a.649.649,0,0,0-.648-.648H766.275a.648.648,0,0,0-.648.648v3.27H755.9v-3.27a.648.648,0,0,0-.648-.648H739.689a.648.648,0,0,0-.648.648v3.27h-9.726v-3.27a.649.649,0,0,0-.648-.648h-121.9a.648.648,0,0,0-.648.648v3.27h-9.726v-3.27a.648.648,0,0,0-.648-.648H580.181a.648.648,0,0,0-.648.648v3.27h-9.726v-3.27a.648.648,0,0,0-.648-.648H553.6a.648.648,0,0,0-.648.648v3.27h-9.726v-3.27a.648.648,0,0,0-.648-.648H527.011a.648.648,0,0,0-.648.648v3.27h-9.726v-3.27a.648.648,0,0,0-.648-.648H500.426a.648.648,0,0,0-.648.648v3.27h-9.726v-3.27a.648.648,0,0,0-.648-.648H473.841a.648.648,0,0,0-.648.648v3.27h-9.726v-3.27a.648.648,0,0,0-.648-.648H447.256a.648.648,0,0,0-.648.648v3.27H416.781A15.562,15.562,0,0,0,401.219,623.2v7.037a15.562,15.562,0,0,0,15.562,15.562H934.215a15.562,15.562,0,0,0,15.562-15.562V623.2a15.562,15.562,0,0,0-15.562-15.562Z" transform="translate(-147.373 -323.021)" fill="#3f3d56"/>
</svg>
