<svg xmlns="http://www.w3.org/2000/svg" xmlns:xlink="http://www.w3.org/1999/xlink" width="786.693" height="281.37" viewBox="0 0 786.693 281.37">
  <defs>
    <linearGradient id="linear-gradient" x1="0.023" y1="0.205" x2="0.213" y2="0.894" gradientUnits="objectBoundingBox" gradientTransform="rotate(-45)">
      <stop offset="0%" stop-color="#ff073a"/>
      <stop offset="15%" stop-color="#9c1de7"/>
      <stop offset="30%" stop-color="#581b98"/>
      <stop offset="70%" stop-color="#353535"/>
    </linearGradient>
  </defs>
  <path id="rustic" data-name="rustic" d="M18728.48,3871.368q-29.279,0-40.389-24.286a42.464,42.464,0,0,1-1.687-11.857v-57.878q0-25.158,27.955-34.457a35.833,35.833,0,0,1,9.324-1.422h70.023q16.3,0,29.664,14.121,7.336,9.471,7.324,17.519v17.49l-.553.581h-49.135l-.576-.581v-8.748c0-8.289-2.723-12.406-8.172-12.406h-27.107c-5.467,0-8.189,4.116-8.189,12.406v46.025q0,9.258,6.191,11.857h29.951c4.264,0,6.721-3.856,7.326-11.569V3813.49l.576-.577h49.135l.553.577v25.4q0,15.036-17.494,26.555-9.832,5.926-24.287,5.926Zm-100.586,0-.559-.553V3742.332l.559-.576h48.02l.553.576v128.483l-.553.553Zm-108.568,0-.576-.553v-101.37h-49.418l-.559-.581v-26.82l.553-.576H18617.3l.578.576v26.82l-.578.581h-49.135v101.37l-.553.553Zm-156.635,0q-29.276,0-40.387-24.286a42.388,42.388,0,0,1-1.684-11.857v-9.877l.553-.581h49.42l.58.581v2.264c0,8.1,4.41,12.122,13.252,12.122h19.207c5.807,0,9.564-2.146,11.3-6.484v-2.817c0-3.956-3.3-6.772-9.877-8.483q-52.8-7.918-65.232-12.146-14.417-5.926-17.777-14.962a26.9,26.9,0,0,1-1.424-9.329v-8.166q0-24.939,27.662-34.457a42.365,42.365,0,0,1,9.617-1.422h66.066q17.426,0,31.064,15.832,6.217,8.167,6.215,21.181v4.5l-.555.553h-49.422l-.576-.553c0-6.673-1.3-10.628-3.951-11.857-1.547-1.13-4-1.683-7.33-1.683h-16.092q-12.434,0-12.434,8.167v.288c0,3.544,1.781,5.978,5.373,7.349q56.675,8.818,67.76,12.41,20.892,7.089,20.889,25.132v16.1q0,15.036-17.49,26.555-9.832,5.926-24.291,5.926Zm-151.432,0q-29.276,0-40.387-24.286a42.46,42.46,0,0,1-1.684-11.857v-73.771l-37.58-21.7-.008-48.521,43.061-24.924-43.053-24.825-41.748,24.1v98.27L18044,3790.338V3640.584l87.607-50.586,87.609,50.586v51.271l-41.348,23.842,41.348,23.932v1.89l.525.524v85.832c0,6.172,2.074,10.123,6.189,11.857h29.953c4.268,0,6.725-3.856,7.324-11.569v-86.12l.582-.576h49.131l.553.576v96.843q0,15.036-17.49,26.555-9.832,5.926-24.291,5.926Z" transform="translate(-18044.002 -3589.998)" fill="url(#linear-gradient)"/>
</svg>
