<svg id="undraw_ideation_2a64" xmlns="http://www.w3.org/2000/svg" xmlns:xlink="http://www.w3.org/1999/xlink" width="656.168" height="499.531" viewBox="0 0 656.168 499.531">
  <defs>
    <linearGradient id="linear-gradient" x1="0.443" x2="0.897" y2="1" gradientUnits="objectBoundingBox">
      <stop offset="0" stop-color="#581b98"/>
      <stop offset="0.46" stop-color="#9c1de7"/>
      <stop offset="1" stop-color="#ff073a"/>
    </linearGradient>
  </defs>
  <path id="Trazado_188" data-name="Trazado 188" d="M480.6,241.039l-9.7,43.614-7.872,35.382-6.274,28.219-7.867,35.382L423.184,499.231,104.647,352.041,81.232,341.22l-29.638-13.7L28.172,316.7,0,303.682l15.971-23.236,13.282-19.322,16.8-24.445,13.277-19.309L208.739,0,367.014,140.333,395.2,165.321l22.474,19.926,28.189,24.989Z" fill="url(#linear-gradient)"/>
  <path id="Trazado_189" data-name="Trazado 189" d="M570.631,484.662l16.455,28.5,16.454,28.5H537.723l16.454-28.5Z" transform="translate(-209.35 -188.692)" fill="#f3558e"/>
  <rect id="Rectángulo_881" data-name="Rectángulo 881" width="69.006" height="69.006" transform="translate(198.774 239.995)" fill="#ff073a"/>
  <path id="Trazado_314" data-name="Trazado 314" d="M44,0C68.3,0,88,19.923,88,44.5S68.3,89,44,89,0,69.077,0,44.5,19.7,0,44,0Z" transform="translate(273.033 107)" fill="#581b98"/>
  <path id="Trazado_190" data-name="Trazado 190" d="M647.5,405.884a7.328,7.328,0,1,1,7.328,7.328,7.328,7.328,0,0,1-7.328-7.328Zm1.221,0a6.107,6.107,0,1,0,6.107-6.107A6.107,6.107,0,0,0,648.721,405.884Z" transform="translate(-290.409 -180.206)" fill="#f7f7f7"/>
  <path id="Trazado_191" data-name="Trazado 191" d="M537.309,605.043l-10.787-11.565,11.565-10.787,10.787,11.565Zm-9.067-11.505,9.127,9.786,9.786-9.127-9.127-9.786Z" transform="translate(-243.309 -251.895)" fill="#f7f7f7"/>
  <path id="Trazado_192" data-name="Trazado 192" d="M392.707,338.289l-8.779-9.412,9.413-8.779,8.779,9.412Zm-7.38-9.363,7.429,7.964,7.964-7.429-7.429-7.965Z" transform="translate(-187.793 -149.66)" fill="#f7f7f7"/>
  <rect id="Rectángulo_882" data-name="Rectángulo 882" width="381.06" height="1.221" transform="translate(275.108 498.309)" fill="#f7f7f7"/>
  <path id="Trazado_193" data-name="Trazado 193" d="M561.317,293.135a61.067,61.067,0,1,1,61.067-61.067A61.067,61.067,0,0,1,561.317,293.135Zm0-120.913a59.846,59.846,0,1,0,59.846,59.846,59.846,59.846,0,0,0-59.846-59.846Z" transform="translate(-233.081 -91.613)" fill="#f7f7f7"/>
  <rect id="Rectángulo_883" data-name="Rectángulo 883" width="36.425" height="1.221" transform="translate(274.869 220.8) rotate(-64.336)" fill="#f7f7f7"/>
  <rect id="Rectángulo_884" data-name="Rectángulo 884" width="1.221" height="79.011" transform="translate(286.421 265.568) rotate(-61.578)" fill="#3f3d56"/>
  <path id="Trazado_194" data-name="Trazado 194" d="M476.408,491.158H387.25V402h89.158Zm-87.937-1.221h86.716V403.221H388.471Z" transform="translate(-189.087 -181.547)" fill="#f7f7f7"/>
  <path id="Trazado_195" data-name="Trazado 195" d="M690.964,569.081H598.741l46.111-79.867Zm-90.108-1.221h87.992l-44-76.2Z" transform="translate(-271.426 -215.502)" fill="#f7f7f7"/>
  <circle id="Elipse_55" data-name="Elipse 55" cx="15.267" cy="15.267" r="15.267" transform="translate(520.599 190.53)" fill="#a0616a"/>
  <path id="Trazado_196" data-name="Trazado 196" d="M942.738,390.957s1.832,18.32,4.885,21.374S926.25,410.5,926.25,410.5s3.664-15.267,1.221-17.71S942.738,390.957,942.738,390.957Z" transform="translate(-398.934 -177.221)" fill="#a0616a"/>
  <path id="Trazado_197" data-name="Trazado 197" d="M967.635,441.5s7.328,20.763,9.16,33.587,1.832,18.32,1.832,18.32,7.939,24.427,5.5,36.03c0,0,9.16,27.48,1.221,27.48s-10.381-22.595-10.381-22.595L962.75,476.308Z" transform="translate(-413.144 -196.925)" fill="#a0616a"/>
  <path id="Trazado_198" data-name="Trazado 198" d="M930.809,439.551s-1.832-22.595-9.771-24.427c-3.79-.875-9.946-2.167-15.345-3.278a21.271,21.271,0,0,0-23.383,11.124,15.589,15.589,0,0,0-1.576,4.978c-1.221,9.771-7.328,9.771-1.832,22.595s4.275,26.259,4.275,26.259l3.664,32.366s-15.267,42.747-14.045,71.449L858.75,650.844s3.053,7.328,11.6,3.664c0,0,21.374-36.03,19.542-62.289l21.984-48.854s15.267,46.411,19.542,50.686L942.412,660s10.382,3.053,15.267,0c0,0,1.832-63.51-8.55-73.891,0,0-10.381-43.969-7.939-55.571s3.053-29.312-15.267-45.19c0,0,2.443-6.717-5.5-10.381l6.107-19.542Z" transform="translate(-372.654 -185.206)" fill="#f7f7f7"/>
  <path id="Trazado_199" data-name="Trazado 199" d="M893.706,414.822q-.247-.036-.5-.059a9.615,9.615,0,0,0-10.3,9.253l-.965,21.716-3.664,23.816-7.939,51.3s-15.267,18.32-4.885,19.542,12.214-20.152,12.214-20.152l13.435-40.3,5.5-37.251s6.411-6.41,3.742-21.23A8.032,8.032,0,0,0,893.706,414.822Z" transform="translate(-373.852 -186.501)" fill="#a0616a"/>
  <path id="Trazado_200" data-name="Trazado 200" d="M850.246,799.5l-4.275,21.984s-10.381,4.885-3.664,10.992,15.878-1.221,15.878-1.221l2.443-7.328-.611,10.992h1.832l1.832-10.992s3.664-6.717,1.221-12.214v-7.328Z" transform="translate(-365.372 -336.304)" fill="#f7f7f7"/>
  <path id="Trazado_201" data-name="Trazado 201" d="M987.914,803l-2.443,20.152s-10.381,4.885-3.664,10.992,15.877-1.221,15.877-1.221l2.443-7.328-.611,10.992h1.832l1.832-10.992s3.664-6.717,1.222-12.214v-7.328Z" transform="translate(-419.683 -337.667)" fill="#f7f7f7"/>
  <path id="Trazado_202" data-name="Trazado 202" d="M938.445,338.805h0a13.211,13.211,0,0,0-2.55.254,11.175,11.175,0,0,0-4.868-1.122h-.442c-8.519,0-15.426,7.709-15.426,17.219h2.855l.461-3.509.676,3.509h2.378a33.661,33.661,0,0,0-1.1,8.627v17.526h4.316l2.5-6.494-.625,6.494h27.742l2.272-5.9-.568,5.9h3.124V367.547C959.183,351.673,949.9,338.805,938.445,338.805Z" transform="translate(-394.616 -156.605)" fill="#9600a1"/>
  <rect id="Rectángulo_885" data-name="Rectángulo 885" width="1.145" height="204.724" transform="translate(628.609 294.064)" fill="#f7f7f7"/>
  <ellipse id="Elipse_56" data-name="Elipse 56" cx="22.324" cy="50.945" rx="22.324" ry="50.945" transform="translate(607.078 379.354)" fill="#581b98"/>
  <path id="Trazado_203" data-name="Trazado 203" d="M1070.6,453.876l-1.1-.329c.069-.232,6.8-23.3-4.251-38.143-6.242-8.386-16.952-12.638-31.835-12.638v-1.145c15.266,0,26.287,4.409,32.756,13.1C1077.572,430.038,1070.678,453.64,1070.6,453.876Z" transform="translate(-440.659 -181.4)" fill="#f7f7f7"/>
  <circle id="Elipse_58" data-name="Elipse 58" cx="14.31" cy="14.31" r="14.31" transform="translate(578.455 206.484)" fill="#f2f2f2"/>
  <ellipse id="Elipse_57" data-name="Elipse 57" cx="22.324" cy="50.945" rx="22.324" ry="50.945" transform="translate(607.078 263.153)" fill="#581b98"/>
</svg>
