<svg xmlns="http://www.w3.org/2000/svg" xmlns:xlink="http://www.w3.org/1999/xlink" width="786.695" height="281.37" viewBox="0 0 786.695 281.37">
  <defs>
    <linearGradient id="linear-gradient" y1="0.213" x2="0.736" y2="0.813" gradientUnits="objectBoundingBox">
      <stop offset="0" stop-color="#9c1de7"/>
      <stop offset="0.485" stop-color="#ff073a"/>
      <stop offset="1" stop-color="#f7f7f7"/>
    </linearGradient>
  </defs>
  <g id="Grupo_1842" data-name="Grupo 1842" transform="translate(-580.586 -239.534)">
    <path id="path32" d="M344.289,397.968H393.71l.578.579v85.831q0,9.254,6.193,11.856h29.952c4.265,0,6.723-3.856,7.325-11.566v-86.12l.578-.579h49.133l.554.579V495.39q0,15.036-17.494,26.554-9.832,5.927-24.289,5.927H385.806q-29.277,0-40.386-24.289a42.358,42.358,0,0,1-1.686-11.856v-93.18Zm188.154,0h66.072q17.422,0,31.06,15.831,6.216,8.169,6.217,21.181v4.506l-.555.554H585.815l-.578-.554c0-6.675-1.3-10.627-3.952-11.856-1.542-1.133-4-1.686-7.325-1.686h-16.1q-12.434,0-12.435,8.168v.289c0,3.542,1.783,5.976,5.374,7.349q56.675,8.818,67.759,12.409,20.892,7.085,20.891,25.132v16.1q0,15.036-17.493,26.554-9.832,5.927-24.289,5.927H537.237q-29.277,0-40.386-24.289a42.363,42.363,0,0,1-1.686-11.856v-9.879l.554-.579h49.421l.578.579v2.264c0,8.1,4.41,12.121,13.253,12.121h19.2c5.807,0,9.566-2.144,11.3-6.482v-2.819q0-5.927-9.88-8.482-52.807-7.915-65.229-12.145-14.422-5.927-17.783-14.963a26.92,26.92,0,0,1-1.422-9.326v-8.168q0-24.939,27.663-34.457a42.39,42.39,0,0,1,9.615-1.422Zm111.43,0H791.848l.579.579v26.819l-.579.579H742.716V527.317l-.555.554H693.874l-.578-.554V425.944H643.874l-.555-.579V398.547Zm158.564.289h48.024l.554.578V527.317l-.554.555H802.437l-.555-.555V398.836Zm95.792-.289h70.023q16.3,0,29.663,14.121,7.337,9.469,7.325,17.518V447.1l-.554.578H955.554l-.578-.578v-8.747c0-8.289-2.723-12.409-8.168-12.409H919.7c-5.469,0-8.193,4.12-8.193,12.409v46.024q0,9.254,6.192,11.856H947.65c4.265,0,6.723-3.856,7.325-11.566V469.992l.578-.579h49.133l.554.579v25.4q0,15.036-17.494,26.554-9.832,5.927-24.289,5.927H903.024q-29.277,0-40.386-24.289a42.361,42.361,0,0,1-1.686-11.856V433.847q0-25.157,27.952-34.457a35.852,35.852,0,0,1,9.325-1.422Z" transform="translate(362.041 -6.968)" fill="#f7f7f7" fill-rule="evenodd"/>
    <g id="Grupo_1790" data-name="Grupo 1790" transform="translate(-853.068 325.259)">
      <path id="path14" d="M194.428,174.745l87.612,50.581V276.6l-41.35,23.845,41.35,23.932v50.71L194.428,324.5l-.007-48.524,43.06-24.92-43.053-24.827-41.744,24.1V348.6l-45.864,26.48V225.326Z" transform="translate(1326.835 -260.47)" fill-rule="evenodd" fill="url(#linear-gradient)"/>
    </g>
  </g>
</svg>
