<?xml version="1.0" encoding="UTF-8" standalone="no"?>
<svg
   xmlns:dc="http://purl.org/dc/elements/1.1/"
   xmlns:cc="http://creativecommons.org/ns#"
   xmlns:rdf="http://www.w3.org/1999/02/22-rdf-syntax-ns#"
   xmlns:svg="http://www.w3.org/2000/svg"
   xmlns="http://www.w3.org/2000/svg"
   xmlns:sodipodi="http://sodipodi.sourceforge.net/DTD/sodipodi-0.dtd"
   xmlns:inkscape="http://www.inkscape.org/namespaces/inkscape"
   id="undraw_server_cluster_jwwq"
   width="817.931"
   height="654.72"
   viewBox="0 0 817.931 654.72"
   version="1.1"
   sodipodi:docname="server_the_mess_light.svg"
   inkscape:version="0.92.4 (5da689c313, 2019-01-14)">
  <metadata
     id="metadata69">
    <rdf:RDF>
      <cc:Work
         rdf:about="">
        <dc:format>image/svg+xml</dc:format>
        <dc:type
           rdf:resource="http://purl.org/dc/dcmitype/StillImage" />
      </cc:Work>
    </rdf:RDF>
  </metadata>
  <defs
     id="defs67" />
  <sodipodi:namedview
     pagecolor="#ffffff"
     bordercolor="#666666"
     borderopacity="1"
     objecttolerance="10"
     gridtolerance="10"
     guidetolerance="10"
     inkscape:pageopacity="0"
     inkscape:pageshadow="2"
     inkscape:window-width="1366"
     inkscape:window-height="705"
     id="namedview65"
     showgrid="false"
     inkscape:zoom="0.36045945"
     inkscape:cx="408.96552"
     inkscape:cy="327.35999"
     inkscape:window-x="-8"
     inkscape:window-y="-8"
     inkscape:window-maximized="1"
     inkscape:current-layer="undraw_server_cluster_jwwq" />
  <path
     id="Trazado_252"
     data-name="Trazado 252"
     d="M580.413,658.361A239.543,239.543,0,1,1,749.8,588.2a239.543,239.543,0,0,1-169.384,70.161Zm0-477.245c-131.069,0-237.7,106.633-237.7,237.7s106.633,237.7,237.7,237.7,237.7-106.632,237.7-237.7-106.633-237.7-237.7-237.7Z"
     transform="translate(-170.586 -101.276)"
     fill="#581b98" />
  <rect
     id="Rectángulo_887"
     data-name="Rectángulo 887"
     width="241.327"
     height="179.613"
     transform="translate(498.772 351.681) rotate(90)"
     fill="#581b98" />
  <rect
     id="Rectángulo_888"
     data-name="Rectángulo 888"
     width="241.327"
     height="95.794"
     transform="translate(288.302 344.311)"
     fill="#353535" />
  <rect
     id="Rectángulo_889"
     data-name="Rectángulo 889"
     width="241.327"
     height="95.794"
     transform="translate(288.302 451.158)"
     fill="#353535" />
  <rect
     id="Rectángulo_890"
     data-name="Rectángulo 890"
     width="241.327"
     height="95.794"
     transform="translate(288.302 558.005)"
     fill="#353535" />
  <rect
     id="Rectángulo_891"
     data-name="Rectángulo 891"
     width="241.327"
     height="14.738"
     transform="translate(288.302 384.929)"
     fill="#faee1c" />
  <rect
     id="Rectángulo_892"
     data-name="Rectángulo 892"
     width="241.327"
     height="14.738"
     transform="translate(288.302 491.776)"
     fill="#9c1de7" />
  <rect
     id="Rectángulo_893"
     data-name="Rectángulo 893"
     width="241.327"
     height="14.738"
     transform="translate(288.302 598.623)"
     fill="#ff073a" />
  <circle
     id="Elipse_61"
     data-name="Elipse 61"
     cx="5.527"
     cy="5.527"
     r="5.527"
     transform="translate(477.127 352.601)"
     fill="#ff073a" />
  <circle
     id="Elipse_62"
     data-name="Elipse 62"
     cx="5.527"
     cy="5.527"
     r="5.527"
     transform="translate(496.47 352.601)"
     fill="#581b98" />
  <circle
     id="Elipse_63"
     data-name="Elipse 63"
     cx="5.527"
     cy="5.527"
     r="5.527"
     transform="translate(515.813 352.601)"
     fill="#9c1de7" />
  <circle
     id="Elipse_64"
     data-name="Elipse 64"
     cx="5.527"
     cy="5.527"
     r="5.527"
     transform="translate(477.127 457.606)"
     fill="#9c1de7" />
  <circle
     id="Elipse_65"
     data-name="Elipse 65"
     cx="5.527"
     cy="5.527"
     r="5.527"
     transform="translate(496.47 457.606)"
     fill="#ff073a" />
  <circle
     id="Elipse_66"
     data-name="Elipse 66"
     cx="5.527"
     cy="5.527"
     r="5.527"
     transform="translate(515.813 457.606)"
     fill="#581b98" />
  <circle
     id="Elipse_67"
     data-name="Elipse 67"
     cx="5.527"
     cy="5.527"
     r="5.527"
     transform="translate(477.127 562.611)"
     fill="#faee1c" />
  <circle
     id="Elipse_68"
     data-name="Elipse 68"
     cx="5.527"
     cy="5.527"
     r="5.527"
     transform="translate(496.47 562.611)"
     fill="#ff073a" />
  <circle
     id="Elipse_69"
     data-name="Elipse 69"
     cx="5.527"
     cy="5.527"
     r="5.527"
     transform="translate(515.813 562.611)"
     fill="#9c1de7" />
  <rect
     id="Rectángulo_894"
     data-name="Rectángulo 894"
     width="681.99341"
     height="1.842"
     x="0"
     y="652.87799"
     style="fill:#353535;stroke-width:0.9131282" />
  <path
     id="Trazado_253"
     data-name="Trazado 253"
     d="M389.86,364.5V535.819a13.517,13.517,0,0,1-13.512,13.515H309.77a13.519,13.519,0,0,1-13.52-13.516V364.5a13.519,13.519,0,0,1,13.52-13.515h8.076a6.427,6.427,0,0,0,5.946,8.848h37.957a6.427,6.427,0,0,0,5.946-8.848h8.651A13.517,13.517,0,0,1,389.86,364.5Z"
     transform="translate(-167.067 -114.827)"
     fill="#e6e6e6" />
  <rect
     id="Rectángulo_895"
     data-name="Rectángulo 895"
     width="84.741"
     height="117.9"
     transform="translate(133.618 268.877)"
     fill="#fff" />
  <rect
     id="Rectángulo_896"
     data-name="Rectángulo 896"
     width="33.822"
     height="1.933"
     transform="translate(157.678 349.948)"
     fill="#e6e6e6" />
  <rect
     id="Rectángulo_897"
     data-name="Rectángulo 897"
     width="52.334"
     height="1.933"
     transform="translate(157.644 357.045)"
     fill="#581b98" />
  <rect
     id="Rectángulo_898"
     data-name="Rectángulo 898"
     width="41.07"
     height="1.933"
     transform="translate(157.644 363.731)"
     fill="#e6e6e6" />
  <rect
     id="Rectángulo_899"
     data-name="Rectángulo 899"
     width="24.159"
     height="1.933"
     transform="translate(157.644 370.417)"
     fill="#e6e6e6" />
  <rect
     id="Rectángulo_900"
     data-name="Rectángulo 900"
     width="36.238"
     height="1.933"
     transform="translate(157.644 377.102)"
     fill="#e6e6e6" />
  <rect
     id="Rectángulo_901"
     data-name="Rectángulo 901"
     width="3.865"
     height="3.865"
     transform="translate(142.339 349.393)"
     fill="#e6e6e6" />
  <rect
     id="Rectángulo_902"
     data-name="Rectángulo 902"
     width="3.865"
     height="3.865"
     transform="translate(142.339 356.078)"
     fill="#581b98" />
  <rect
     id="Rectángulo_903"
     data-name="Rectángulo 903"
     width="3.865"
     height="3.865"
     transform="translate(142.339 362.765)"
     fill="#e6e6e6" />
  <rect
     id="Rectángulo_904"
     data-name="Rectángulo 904"
     width="3.865"
     height="3.865"
     transform="translate(142.339 369.451)"
     fill="#e6e6e6" />
  <rect
     id="Rectángulo_905"
     data-name="Rectángulo 905"
     width="3.865"
     height="3.865"
     transform="translate(142.339 376.136)"
     fill="#e6e6e6" />
  <rect
     id="Rectángulo_906"
     data-name="Rectángulo 906"
     width="34.078"
     height="34.078"
     transform="translate(159.12 283.614)"
     fill="#e6e6e6" />
  <path
     id="Trazado_315"
     data-name="Trazado 315"
     d="M0,0H226.482V145.049H0Z"
     transform="translate(295.773 0.128)"
     fill="#e6e6e6" />
  <rect
     id="Rectángulo_908"
     data-name="Rectángulo 908"
     width="187.775"
     height="70.957"
     transform="translate(312.847 40.708)"
     fill="#fff" />
  <rect
     id="Rectángulo_909"
     data-name="Rectángulo 909"
     width="45.066"
     height="2.575"
     transform="translate(347.058 53.001)"
     fill="#e6e6e6" />
  <rect
     id="Rectángulo_910"
     data-name="Rectángulo 910"
     width="69.732"
     height="2.575"
     transform="translate(347.013 62.457)"
     fill="#3b42ce" />
  <rect
     id="Rectángulo_911"
     data-name="Rectángulo 911"
     width="54.723"
     height="2.575"
     transform="translate(347.013 71.365)"
     fill="#e6e6e6" />
  <rect
     id="Rectángulo_912"
     data-name="Rectángulo 912"
     width="32.19"
     height="2.575"
     transform="translate(347.013 80.274)"
     fill="#e6e6e6" />
  <rect
     id="Rectángulo_913"
     data-name="Rectángulo 913"
     width="48.285"
     height="2.575"
     transform="translate(347.013 89.182)"
     fill="#e6e6e6" />
  <rect
     id="Rectángulo_914"
     data-name="Rectángulo 914"
     width="5.15"
     height="5.15"
     transform="translate(326.621 52.261)"
     fill="#e6e6e6" />
  <rect
     id="Rectángulo_915"
     data-name="Rectángulo 915"
     width="5.15"
     height="5.15"
     transform="translate(326.621 61.169)"
     fill="#3b42ce" />
  <rect
     id="Rectángulo_916"
     data-name="Rectángulo 916"
     width="5.15"
     height="5.15"
     transform="translate(326.621 70.078)"
     fill="#e6e6e6" />
  <rect
     id="Rectángulo_917"
     data-name="Rectángulo 917"
     width="5.15"
     height="5.15"
     transform="translate(326.621 78.986)"
     fill="#e6e6e6" />
  <rect
     id="Rectángulo_918"
     data-name="Rectángulo 918"
     width="5.15"
     height="5.15"
     transform="translate(326.621 87.895)"
     fill="#e6e6e6" />
  <rect
     id="Rectángulo_919"
     data-name="Rectángulo 919"
     width="46.109"
     height="46.109"
     transform="translate(445.298 49.599)"
     fill="#e6e6e6" />
  <rect
     id="Rectángulo_920"
     data-name="Rectángulo 920"
     width="226.482"
     height="9.622"
     transform="translate(295.677)"
     fill="#581b98" />
  <circle
     id="Elipse_70"
     data-name="Elipse 70"
     cx="1.931"
     cy="1.931"
     r="1.931"
     transform="translate(300.895 2.988)"
     fill="#fff" />
  <circle
     id="Elipse_71"
     data-name="Elipse 71"
     cx="1.931"
     cy="1.931"
     r="1.931"
     transform="translate(307.664 2.988)"
     fill="#fff" />
  <circle
     id="Elipse_72"
     data-name="Elipse 72"
     cx="1.931"
     cy="1.931"
     r="1.931"
     transform="translate(314.433 2.988)"
     fill="#fff" />
  <rect
     id="Rectángulo_921"
     data-name="Rectángulo 921"
     width="55.266"
     height="28.554"
     transform="translate(618.651 271.545)"
     fill="#e6e6e6" />
  <rect
     id="Rectángulo_922"
     data-name="Rectángulo 922"
     width="55.266"
     height="28.554"
     transform="translate(618.651 373.786)"
     fill="#e6e6e6" />
  <circle
     id="Elipse_73"
     data-name="Elipse 73"
     cx="46.055"
     cy="46.055"
     r="46.055"
     transform="translate(600.229 290.888)"
     fill="#e6e6e6" />
  <circle
     id="Elipse_74"
     data-name="Elipse 74"
     cx="35.923"
     cy="35.923"
     r="35.923"
     transform="translate(610.361 301.02)"
     fill="#fff" />
  <rect
     id="Rectángulo_923"
     data-name="Rectángulo 923"
     width="27.86"
     height="1.592"
     transform="translate(634.52 327.101)"
     fill="#e2e2e2" />
  <rect
     id="Rectángulo_924"
     data-name="Rectángulo 924"
     width="43.109"
     height="1.592"
     transform="translate(634.492 332.946)"
     fill="#581b98" />
  <rect
     id="Rectángulo_925"
     data-name="Rectángulo 925"
     width="33.83"
     height="1.592"
     transform="translate(634.492 338.453)"
     fill="#e2e2e2" />
  <rect
     id="Rectángulo_926"
     data-name="Rectángulo 926"
     width="19.9"
     height="1.592"
     transform="translate(634.492 343.96)"
     fill="#e2e2e2" />
  <rect
     id="Rectángulo_927"
     data-name="Rectángulo 927"
     width="29.85"
     height="1.592"
     transform="translate(634.492 349.468)"
     fill="#e2e2e2" />
  <rect
     id="Rectángulo_928"
     data-name="Rectángulo 928"
     width="3.184"
     height="3.184"
     transform="translate(621.886 326.643)"
     fill="#e2e2e2" />
  <rect
     id="Rectángulo_929"
     data-name="Rectángulo 929"
     width="3.184"
     height="3.184"
     transform="translate(621.886 332.15)"
     fill="#581b98" />
  <rect
     id="Rectángulo_930"
     data-name="Rectángulo 930"
     width="3.184"
     height="3.184"
     transform="translate(621.886 337.657)"
     fill="#e2e2e2" />
  <rect
     id="Rectángulo_931"
     data-name="Rectángulo 931"
     width="3.184"
     height="3.184"
     transform="translate(621.886 343.165)"
     fill="#e2e2e2" />
  <rect
     id="Rectángulo_932"
     data-name="Rectángulo 932"
     width="3.184"
     height="3.184"
     transform="translate(621.886 348.672)"
     fill="#e2e2e2" />
</svg>
