<svg id="undraw_mobile_development_8gyo" xmlns="http://www.w3.org/2000/svg" width="890.257" height="582.2" viewBox="0 0 890.257 582.2">
  <path id="Trazado_275" data-name="Trazado 275" d="M642.42,293.738v65.847a2.3,2.3,0,0,0,2.3,2.3h1.634V704.9a35.792,35.792,0,0,0,35.789,35.791H896.474A35.783,35.783,0,0,0,932.255,704.9V373.911h1.183a1.621,1.621,0,0,0,1.624-1.614V334.822a1.624,1.624,0,0,0-1.624-1.624h-1.183V319.082h1.193a1.7,1.7,0,0,0,1.694-1.7V280.414a1.7,1.7,0,0,0-1.694-1.694h-1.193V259.451h1.213a1.5,1.5,0,0,0,1.5-1.5V237.776a1.51,1.51,0,0,0-1.5-1.514h-1.213V195.419a35.782,35.782,0,0,0-35.779-35.781H682.141a35.791,35.791,0,0,0-35.791,35.781v96.023h-1.634A2.3,2.3,0,0,0,642.42,293.738Z" transform="translate(-532.541 -159.638)" fill="#353535"/>
  <rect id="Rectángulo_933" data-name="Rectángulo 933" width="39.925" height="8.107" rx="2.542" transform="translate(243.892 18.354)" fill="#e6e8ec"/>
  <ellipse id="Elipse_78" data-name="Elipse 78" cx="4.598" cy="4.598" rx="4.598" ry="4.598" transform="translate(228.658 17.809)" fill="#e6e8ec"/>
  <path id="Trazado_276" data-name="Trazado 276" d="M663.435,202.446V707.817a22.708,22.708,0,0,0,22.708,22.7h205.17a22.668,22.668,0,0,0,22.708-22.7V202.446a22.707,22.707,0,0,0-22.708-22.708H860.6v3.94a18.7,18.7,0,0,1-18.7,18.7H737.563a18.7,18.7,0,0,1-18.7-18.7v-3.94H686.143A22.7,22.7,0,0,0,663.435,202.446Z" transform="translate(-532.488 -159.587)" fill="#fff"/>
  <rect id="Rectángulo_934" data-name="Rectángulo 934" width="208.529" height="27.069" transform="translate(151.557 352.854)" fill="#e6e6e6"/>
  <rect id="Rectángulo_935" data-name="Rectángulo 935" width="208.529" height="27.069" transform="translate(151.557 400.976)" fill="#e6e6e6"/>
  <rect id="Rectángulo_936" data-name="Rectángulo 936" width="208.529" height="27.069" transform="translate(151.557 449.098)" fill="#e6e6e6"/>
  <ellipse id="Elipse_79" data-name="Elipse 79" cx="20.051" cy="20.051" rx="20.051" ry="20.051" transform="translate(154.565 71.139)" fill="#581b98"/>
  <rect id="Rectángulo_937" data-name="Rectángulo 937" width="208.529" height="138.351" transform="translate(151.975 158.361)" fill="#e6e6e6"/>
  <path id="Trazado_277" data-name="Trazado 277" d="M799.078,395.3c-6.089,22.507-26.943,36.446-26.943,36.446s-10.983-22.552-4.895-45.059,26.943-36.446,26.943-36.446S805.166,372.8,799.078,395.3Z" transform="translate(-521.609 -159.154)" fill="#ff073a"/>
  <path id="Trazado_278" data-name="Trazado 278" d="M753.258,390.408c-16.707,16.264-18.748,41.265-18.748,41.265s25.047-1.368,41.754-17.631,18.748-41.265,18.748-41.265S769.965,374.144,753.258,390.408Z" transform="translate(-484.737 -159.096)" fill="#faee1c"/>
  <path id="Trazado_279" data-name="Trazado 279" d="M790.731,395.3c6.089,22.507,26.943,36.446,26.943,36.446s10.983-22.552,4.895-45.059-26.943-36.446-26.943-36.446S784.643,372.8,790.731,395.3Z" transform="translate(-568.652 -159.154)" fill="#9c1de7"/>
  <path id="Trazado_280" data-name="Trazado 280" d="M836.614,390.408c16.707,16.264,18.748,41.265,18.748,41.265s-25.047-1.368-41.754-17.631-18.748-41.265-18.748-41.265S819.907,374.144,836.614,390.408Z" transform="translate(-605.588 -159.096)" fill="#581b98"/>
  <rect id="Rectángulo_938" data-name="Rectángulo 938" width="890.257" height="2.246" transform="translate(0 579.953)" fill="#3f3d56"/>
  <g id="Grupo_1773" data-name="Grupo 1773" transform="translate(376.268 305.432)">
    <path id="Trazado_259" data-name="Trazado 259" d="M355.7,593.7l-1.678,35.237s.839,46.144-6.712,49.5c-3.817,1.695-11.486,5.1-18.575,8.826-5.319,2.786-10.311,5.739-13.1,8.281a9.393,9.393,0,0,0-1.888,2.19c-3.356,5.873-25.169,5.034-30.2.839s-1.678,5.034-5.873,6.712c-4.061,1.628-9.69-11.679-6.242-31.546.109-.663.235-1.334.369-2.013,3.851-19.255-2.2-65.373-1.267-83.193a31.356,31.356,0,0,1,.428-4.061c2.517-13.424,34.633-40.741,40.64-29.1,7.4,14.363,24.4,1.242,27.317-5.294,16.779-.839,22.652,19.3,22.652,19.3Z" transform="translate(-262.092 -465.361)" fill="#581b98"/>
    <g id="Grupo_1772" data-name="Grupo 1772" transform="translate(0 0)">
      <path id="Trazado_254" data-name="Trazado 254" d="M304.558,539.733s10.832,17.18,6.963,21.831,29.023,4.768,29.023,4.768-4.941-24.992-3.487-30.743Z" transform="translate(-262.005 -465.398)" fill="#ffb8b8"/>
      <ellipse id="Elipse_75" data-name="Elipse 75" cx="33.966" cy="33.966" rx="33.966" ry="33.966" transform="translate(25.898 12.631)" fill="#2f2e41"/>
      <path id="Trazado_255" data-name="Trazado 255" d="M245.51,536.052v20.136l20.135-4.2-1.677-14.262Z" transform="translate(-105.759 -305.352)" fill="#ffb8b8"/>
      <path id="Trazado_256" data-name="Trazado 256" d="M472.669,699.038l56.211,9.229-14.263,20.974s-39.432-13.424-49.5-13.424S472.669,699.038,472.669,699.038Z" transform="translate(-261.605 -464.982)" fill="#ffb8b8"/>
      <path id="Trazado_257" data-name="Trazado 257" d="M345.466,658.986s41.949-48.661,55.373-46.144,19.3,17.619,19.3,17.619l7.551,74.669s-26.847,2.517-26.847,0-5.034-56.212-5.034-56.212-39.432,87.254-60.406,29.365Z" transform="translate(-261.927 -465.201)" fill="#d0cde1"/>
      <path id="Trazado_258" data-name="Trazado 258" d="M277.656,691.582s.839,43.954,26.008,46.471,52.856-18.785,52.856-18.785l45.3-21.7s53.695,28.416,69.635,20.865c0,0,16.78-17.618,5.873-22.652s-.839,0-.839,0l-64.6-33.559s-12.585-3.356-34.4,5.873-51.178,13.424-51.178,13.424Z" transform="translate(-262.073 -465.077)" fill="#d0cde1"/>
      <ellipse id="Elipse_76" data-name="Elipse 76" cx="25.169" cy="25.169" rx="25.169" ry="25.169" transform="translate(32.362 32.7)" fill="#ffb8b8"/>
      <path id="Trazado_260" data-name="Trazado 260" d="M423.338,708.243s-13.424,5.034-17.619,4.195-8.39,2.517-8.39,7.551-5.034,16.78,2.517,17.618,38.593-.839,45.3,1.678c0,0,30.2.839,27.686-11.746s-15.1-11.746-15.1-11.746S423.338,714.116,423.338,708.243Z" transform="translate(-261.773 -464.959)" fill="#353535"/>
      <path id="Trazado_261" data-name="Trazado 261" d="M521.223,710.767s1.678-5.034,4.195-5.034,22.652,3.356,25.169,2.517,31.881-2.517,26.848,11.745-21.814,15.941-21.814,15.941-30.2-3.356-34.4-2.517-19.3,0-16.779-4.195S522.9,717.479,521.223,710.767Z" transform="translate(-261.498 -464.965)" fill="#353535"/>
      <path id="Trazado_262" data-name="Trazado 262" d="M445.06,590.553l4.6,18.986a1.186,1.186,0,0,1-.023.641l-20.88,65.248a1.186,1.186,0,0,1-2.308-.228l-2.888-25.418a1.182,1.182,0,0,1,.051-.5l19.165-58.816a1.186,1.186,0,0,1,2.281.088Z" transform="translate(-261.703 -465.26)" fill="#3f3d56"/>
      <path id="Trazado_263" data-name="Trazado 263" d="M287.363,432.512l4.25,16.29L273.2,508.3l-4.25-18.415Z" transform="translate(-105.699 -305.615)" fill="#fff"/>
      <path id="Trazado_264" data-name="Trazado 264" d="M350.768,680.543c.708,2.125,73.66-.708,74.368-1.417a15.374,15.374,0,0,0,1.558-2.833c.666-1.417,1.275-2.833,1.275-2.833l-2.833-22.934-72.244-2.564s-1.806,19.435-2.174,28.331A21.257,21.257,0,0,0,350.768,680.543Z" transform="translate(-261.888 -465.112)" fill="#3f3d56"/>
      <path id="Trazado_265" data-name="Trazado 265" d="M259.84,493.975l1.417,19.832H229.385V493.975Z" transform="translate(-105.8 -305.459)" opacity="0.1"/>
      <path id="Trazado_266" data-name="Trazado 266" d="M218.835,500.334l.19-.038-.9,8.537H200.419v-8.5Z" transform="translate(-105.873 -305.443)" opacity="0.1"/>
      <path id="Trazado_267" data-name="Trazado 267" d="M350.768,680.471c.708,2.125,73.66-.708,74.368-1.417a15.368,15.368,0,0,0,1.558-2.833H350.719A21.247,21.247,0,0,0,350.768,680.471Z" transform="translate(-261.888 -465.04)" opacity="0.1"/>
      <ellipse id="Elipse_77" data-name="Elipse 77" cx="9.466" cy="9.466" rx="9.466" ry="9.466" transform="translate(56.026)" fill="#2f2e41"/>
      <path id="Trazado_268" data-name="Trazado 268" d="M324.706,485.295s-9.671,16.086-32.16,22.108-.184,39.816-.184,39.816-8.111-12.289,3.588-25.3S326.476,500,324.706,485.295Z" transform="translate(-262.061 -465.525)" fill="#2f2e41"/>
      <path id="Trazado_269" data-name="Trazado 269" d="M328.735,687.176c-2.072,3.918-4.505,7.987-4.916,9.632-.277,1.116-3.347.47-8.18-1.351-9.69-3.666-26.487-12.064-42.159-20.463a13.239,13.239,0,0,1-2.047-1.342c.109-.663.235-1.334.369-2.014,3.851-19.255-2.2-65.373-1.267-83.193l7.14-2.383,14.263,13.424v57.051s36.915,20.135,39.432,21.813C332.653,679.206,330.882,683.107,328.735,687.176Z" transform="translate(-262.092 -465.269)" opacity="0.1"/>
      <path id="Trazado_270" data-name="Trazado 270" d="M359.691,641.3l22.652,11.746s13.424-14.263,21.813-3.356-24.33,14.263-24.33,14.263-28.525-6.712-29.364-15.941S359.691,641.3,359.691,641.3Z" transform="translate(-261.888 -465.13)" fill="#ffb8b8"/>
      <path id="Trazado_271" data-name="Trazado 271" d="M322.022,672.284l13.424,3.356s15.1-18.458,31.042-11.746-20.136,20.135-20.136,20.135-19.3,10.068-26.847,1.678S322.022,672.284,322.022,672.284Z" transform="translate(-261.974 -465.075)" fill="#ffb8b8"/>
      <path id="Trazado_272" data-name="Trazado 272" d="M351.331,561.794c.839.839,10.068,7.551,10.068,7.551s2.517,31.881-.839,38.593-5.873,6.712-3.356,10.068,5.873.839,2.517,6.712-6.712,5.034-4.195,7.551,1.678,3.356,1.678,3.356l10.068,8.39s-6.177,9.838-14,9.114-14.53-38.478-14.53-38.478Z" transform="translate(-261.918 -465.331)" fill="#581b98"/>
      <path id="Trazado_273" data-name="Trazado 273" d="M277.7,581.878l-7.551,2.517s-20.135,73.83,3.356,86.415,49.5,25.169,50.339,21.814,10.068-16.779,7.55-18.457-39.432-21.814-39.432-21.814V595.3Z" transform="translate(-262.113 -465.28)" fill="#581b98"/>
      <path id="Trazado_274" data-name="Trazado 274" d="M132.957,452.785l-1.677,40.271,44.466,20.975-41.11-20.975Z" transform="translate(-106.049 -305.564)" opacity="0.1"/>
    </g>
  </g>
</svg>
